<svg width="42" height="42" viewBox="0 0 42 42" fill="none" xmlns="http://www.w3.org/2000/svg">
<path fill-rule="evenodd" clip-rule="evenodd" d="M9.26256 9.26256C9.94598 8.57915 11.054 8.57915 11.7374 9.26256L21 18.5251L30.2626 9.26256C30.946 8.57915 32.054 8.57915 32.7374 9.26256C33.4209 9.94598 33.4209 11.054 32.7374 11.7374L23.4749 21L32.7374 30.2626C33.4209 30.946 33.4209 32.054 32.7374 32.7374C32.054 33.4209 30.946 33.4209 30.2626 32.7374L21 23.4749L11.7374 32.7374C11.054 33.4209 9.94598 33.4209 9.26256 32.7374C8.57915 32.054 8.57915 30.946 9.26256 30.2626L18.5251 21L9.26256 11.7374C8.57915 11.054 8.57915 9.94598 9.26256 9.26256Z" fill="#1A1A1A"/>
</svg>
