<svg width="42" height="42" viewBox="0 0 42 42" fill="none" xmlns="http://www.w3.org/2000/svg">
<path fill-rule="evenodd" clip-rule="evenodd" d="M3.5 10.5C3.5 9.5335 4.2835 8.75 5.25 8.75H36.75C37.7165 8.75 38.5 9.5335 38.5 10.5C38.5 11.4665 37.7165 12.25 36.75 12.25H5.25C4.2835 12.25 3.5 11.4665 3.5 10.5ZM3.5 21C3.5 20.0335 4.2835 19.25 5.25 19.25H36.75C37.7165 19.25 38.5 20.0335 38.5 21C38.5 21.9665 37.7165 22.75 36.75 22.75H5.25C4.2835 22.75 3.5 21.9665 3.5 21ZM5.25 29.75C4.2835 29.75 3.5 30.5335 3.5 31.5C3.5 32.4665 4.2835 33.25 5.25 33.25H36.75C37.7165 33.25 38.5 32.4665 38.5 31.5C38.5 30.5335 37.7165 29.75 36.75 29.75H5.25Z" fill="#1A1A1A"/>
</svg>
