<svg width="160" height="80" viewBox="0 0 160 80" fill="none" xmlns="http://www.w3.org/2000/svg">
<path d="M25.2269 33.9338H16.4243V9.10223H25.2997C27.7974 9.10223 29.9475 9.59934 31.7501 10.5936C33.5526 11.5797 34.9389 12.9983 35.9089 14.8494C36.8869 16.7004 37.376 18.9152 37.376 21.4938C37.376 24.0804 36.8869 26.3033 35.9089 28.1624C34.9389 30.0215 33.5445 31.4482 31.7258 32.4425C29.9152 33.4367 27.7489 33.9338 25.2269 33.9338ZM21.6744 29.4355H25.0087C26.5606 29.4355 27.8661 29.1607 28.925 28.611C29.992 28.0533 30.7922 27.1924 31.3257 26.0284C31.8673 24.8564 32.1381 23.3448 32.1381 21.4938C32.1381 19.6589 31.8673 18.1594 31.3257 16.9955C30.7922 15.8315 29.996 14.9747 28.9371 14.425C27.8782 13.8754 26.5728 13.6005 25.0208 13.6005H21.6744V29.4355Z" fill="#1A1A1A"/>
<path d="M49.6553 34.2975C47.7396 34.2975 46.0907 33.9096 44.7084 33.1336C43.3343 32.3495 42.2754 31.2421 41.5317 29.8114C40.7881 28.3726 40.4163 26.6711 40.4163 24.7068C40.4163 22.7911 40.7881 21.1098 41.5317 19.6629C42.2754 18.216 43.3222 17.0884 44.6721 16.2801C46.03 15.4718 47.6224 15.0676 49.4492 15.0676C50.6779 15.0676 51.8216 15.2657 52.8805 15.6617C53.9475 16.0497 54.8771 16.6358 55.6692 17.4198C56.4695 18.2039 57.0919 19.1901 57.5365 20.3783C57.981 21.5584 58.2033 22.9407 58.2033 24.525V25.9436H42.4775V22.7426H53.3413C53.3413 21.999 53.1796 21.3402 52.8563 20.7663C52.533 20.1924 52.0843 19.7438 51.5104 19.4204C50.9446 19.089 50.2858 18.9233 49.5341 18.9233C48.75 18.9233 48.0549 19.1052 47.4486 19.4689C46.8505 19.8246 46.3817 20.3055 46.0422 20.9118C45.7027 21.5099 45.5289 22.1768 45.5208 22.9124V25.9557C45.5208 26.8772 45.6905 27.6734 46.03 28.3443C46.3776 29.0152 46.8666 29.5325 47.4971 29.8962C48.1276 30.26 48.8753 30.4419 49.7402 30.4419C50.3141 30.4419 50.8395 30.361 51.3164 30.1994C51.7934 30.0377 52.2016 29.7952 52.541 29.4719C52.8805 29.1486 53.1392 28.7525 53.317 28.2837L58.0942 28.5989C57.8517 29.7467 57.3546 30.749 56.6029 31.6058C55.8592 32.4546 54.8973 33.1174 53.7172 33.5943C52.5451 34.0631 51.1912 34.2975 49.6553 34.2975Z" fill="#1A1A1A"/>
<path d="M78.4366 15.3101L71.9256 33.9338H66.1057L59.5946 15.3101H65.0508L68.9186 28.6353H69.1126L72.9683 15.3101H78.4366Z" fill="#1A1A1A"/>
<path d="M81.0798 33.9338V15.3101H86.2449V33.9338H81.0798ZM83.6745 12.9094C82.9066 12.9094 82.2478 12.6548 81.6981 12.1455C81.1566 11.6282 80.8858 11.0099 80.8858 10.2905C80.8858 9.57913 81.1566 8.96885 81.6981 8.45961C82.2478 7.94229 82.9066 7.68362 83.6745 7.68362C84.4424 7.68362 85.0971 7.94229 85.6387 8.45961C86.1884 8.96885 86.4632 9.57913 86.4632 10.2905C86.4632 11.0099 86.1884 11.6282 85.6387 12.1455C85.0971 12.6548 84.4424 12.9094 83.6745 12.9094Z" fill="#1A1A1A"/>
<path d="M95.5477 23.167V33.9338H90.3825V15.3101H95.3052V18.5959H95.5234C95.9357 17.5128 96.6268 16.656 97.5968 16.0255C98.5668 15.3869 99.7429 15.0676 101.125 15.0676C102.418 15.0676 103.546 15.3505 104.508 15.9164C105.47 16.4822 106.218 17.2905 106.751 18.3413C107.284 19.3841 107.551 20.6289 107.551 22.0758V33.9338H102.386V22.9972C102.394 21.8575 102.103 20.9684 101.513 20.3298C100.923 19.6831 100.111 19.3598 99.076 19.3598C98.3809 19.3598 97.7665 19.5093 97.233 19.8084C96.7076 20.1075 96.2954 20.544 95.9963 21.1179C95.7053 21.6837 95.5558 22.3668 95.5477 23.167Z" fill="#1A1A1A"/>
<path d="M34.0185 65.3325H25.2159V40.5009H34.0913C36.589 40.5009 38.7391 40.998 40.5417 41.9923C42.3442 42.9784 43.7305 44.397 44.7005 46.2481C45.6785 48.0991 46.1676 50.3139 46.1676 52.8924C46.1676 55.4791 45.6785 57.702 44.7005 59.5611C43.7305 61.4202 42.3361 62.8469 40.5174 63.8411C38.7068 64.8354 36.5405 65.3325 34.0185 65.3325ZM30.466 60.8342H33.8003C35.3523 60.8342 36.6577 60.5593 37.7166 60.0097C38.7836 59.452 39.5838 58.5911 40.1173 57.4271C40.6589 56.2551 40.9297 54.7435 40.9297 52.8924C40.9297 51.0576 40.6589 49.5581 40.1173 48.3942C39.5838 47.2302 38.7876 46.3734 37.7287 45.8237C36.6698 45.274 35.3644 44.9992 33.8124 44.9992H30.466V60.8342Z" fill="#1A1A1A"/>
<path d="M49.9596 65.3325V46.7088H54.8823V49.9946H55.1005C55.4885 48.9034 56.1352 48.0425 57.0405 47.412C57.9458 46.7816 59.0289 46.4663 60.2899 46.4663C61.5671 46.4663 62.6543 46.7856 63.5515 47.4242C64.4487 48.0547 65.0469 48.9115 65.346 49.9946H65.54C65.9199 48.9276 66.607 48.0749 67.6012 47.4363C68.6035 46.7896 69.7877 46.4663 71.1537 46.4663C72.8916 46.4663 74.3022 47.02 75.3853 48.1274C76.4765 49.2267 77.0221 50.7868 77.0221 52.8076V65.3325H71.8691V53.8261C71.8691 52.7914 71.5943 52.0154 71.0446 51.4981C70.495 50.9808 69.8079 50.7221 68.9834 50.7221C68.0458 50.7221 67.3142 51.0212 66.7888 51.6193C66.2634 52.2094 66.0007 52.9894 66.0007 53.9594V65.3325H60.9932V53.7169C60.9932 52.8035 60.7305 52.076 60.2051 51.5345C59.6877 50.9929 59.0047 50.7221 58.156 50.7221C57.5821 50.7221 57.0647 50.8676 56.604 51.1586C56.1513 51.4415 55.7916 51.8416 55.5249 52.359C55.2581 52.8682 55.1248 53.4664 55.1248 54.1534V65.3325H49.9596Z" fill="#1A1A1A"/>
<path d="M81.1021 65.3325V33.8814H86.2673V65.3325H81.1021Z" fill="#1A1A1A"/>
<path d="M100.311 46.7088V50.5887H89.0954V46.7088H100.311ZM91.6416 42.2469H96.8068V59.6096C96.8068 60.0865 96.8795 60.4583 97.025 60.7251C97.1705 60.9837 97.3726 61.1656 97.6313 61.2707C97.898 61.3758 98.2052 61.4283 98.5527 61.4283C98.7952 61.4283 99.0377 61.4081 99.2802 61.3677C99.5227 61.3192 99.7086 61.2828 99.838 61.2586L100.65 65.1021C100.392 65.1829 100.028 65.2759 99.5591 65.381C99.0903 65.4941 98.5204 65.5629 97.8495 65.5871C96.6047 65.6356 95.5135 65.4699 94.5758 65.09C93.6462 64.7101 92.9228 64.12 92.4055 63.3198C91.8882 62.5195 91.6335 61.5091 91.6416 60.2886V42.2469Z" fill="#1A1A1A"/>
<path d="M103.675 65.3325V46.7088H108.683V49.9582H108.877C109.217 48.8023 109.786 47.9294 110.587 47.3393C111.387 46.7411 112.308 46.4421 113.351 46.4421C113.61 46.4421 113.889 46.4582 114.188 46.4906C114.487 46.5229 114.749 46.5674 114.976 46.6239V51.2071C114.733 51.1344 114.398 51.0697 113.969 51.0131C113.541 50.9565 113.149 50.9282 112.793 50.9282C112.034 50.9282 111.355 51.0939 110.756 51.4254C110.166 51.7487 109.697 52.2013 109.35 52.7833C109.01 53.3653 108.841 54.0362 108.841 54.796V65.3325H103.675Z" fill="#1A1A1A"/>
<path d="M121.402 72.3164C120.747 72.3164 120.133 72.2638 119.559 72.1587C118.993 72.0617 118.524 71.9365 118.152 71.7829L119.316 67.9272C119.923 68.1131 120.468 68.2141 120.953 68.2303C121.446 68.2465 121.871 68.1333 122.226 67.8908C122.59 67.6483 122.885 67.2361 123.112 66.6541L123.415 65.866L116.734 46.7088H122.166L126.021 60.3856H126.215L130.108 46.7088H135.576L128.337 67.3452C127.99 68.3475 127.517 69.2205 126.919 69.9642C126.329 70.7159 125.581 71.2938 124.676 71.698C123.77 72.1102 122.679 72.3164 121.402 72.3164Z" fill="#1A1A1A"/>
</svg>
